<?xml version="1.0" encoding="UTF-8"?>
<svg version="1.1" xmlns="http://www.w3.org/2000/svg" width="163" height="213">
<path d="M0 0 C53.79 0 107.58 0 163 0 C163 70.29 163 140.58 163 213 C109.21 213 55.42 213 0 213 C0 142.71 0 72.42 0 0 Z " fill="#B13566" transform="translate(0,0)"/>
<path d="M0 0 C53.79 0 107.58 0 163 0 C163 70.29 163 140.58 163 213 C109.21 213 55.42 213 0 213 C0 142.71 0 72.42 0 0 Z M70 11 C69.17628906 11.350625 68.35257813 11.70125 67.50390625 12.0625 C64.91838771 13.49640976 63.59099437 14.4953203 62 17 C60.74267781 24.64133134 61.67491831 32.37988498 63.5625 39.8515625 C64.07861946 42.38607768 64.31448904 44.4220175 64 47 C62.453125 48.67578125 62.453125 48.67578125 60.25 50.3125 C47.98150877 60.64589797 37.94046446 76.03747866 35 92 C34.93543121 93.41534778 34.91388961 94.83337689 34.9375 96.25 C34.958125 97.4875 34.97875 98.725 35 100 C31.37 99.01 27.74 98.02 24 97 C25.19456363 81.61694586 30.42985308 68.12960482 40 56 C40.73863281 54.96166016 40.73863281 54.96166016 41.4921875 53.90234375 C44.12195351 50.21356386 46.90202405 47.06110031 50.1875 43.9375 C54.1611735 40.03233811 56.91012379 36.73331933 57.05078125 30.890625 C56.79421978 27.7662764 56.38650456 25.49472584 54.4375 23 C53.963125 22.67 53.48875 22.34 53 22 C48.53072684 23.42984059 45.5354968 25.88846721 42.1875 29.0625 C41.66051514 29.55709717 41.13353027 30.05169434 40.59057617 30.5612793 C31.8923899 38.81572123 25.10877865 47.70966954 19 58 C18.44183594 58.93328125 17.88367187 59.8665625 17.30859375 60.828125 C11.01996246 72.32170699 3.66814249 90.71345165 7 104 C10.91479708 110.28853118 19.27401694 112.60306835 26.03515625 114.6015625 C28.16001208 115.03244778 30.08438051 115.09859366 32.25 115.0625 C34.10625 115.0315625 34.10625 115.0315625 36 115 C35.97679688 115.60585937 35.95359375 116.21171875 35.9296875 116.8359375 C35.52546209 135.60354576 43.82843715 149.04466946 56.28125 162.45703125 C59.04445761 165.33173624 59.04445761 165.33173624 62 168 C62.66 168 63.32 168 64 168 C62.53763441 173.60573477 62.53763441 173.60573477 60.125 175.375 C58 176 58 176 54 176 C52.13529714 174.40168326 50.62721226 172.82545132 49 171 C47.99066406 169.95972656 47.99066406 169.95972656 46.9609375 168.8984375 C36.99718115 158.38684575 30.96041517 147.0465153 26.8984375 133.26171875 C23.62172766 122.28868011 23.62172766 122.28868011 16 114 C11.76303423 113.18519889 10.59931749 113.600455 7 116 C9.55653246 148.32583784 24.81584912 172.08397762 49 193 C51.83264113 195.30098023 51.83264113 195.30098023 55.125 194.9375 C65.19903508 192.50023345 72.75461375 186.02010556 79 178 C80.38058594 178.50660156 80.38058594 178.50660156 81.7890625 179.0234375 C90.46060584 182.11447898 98.78046556 184.1712778 108 185 C108.77472656 185.0721875 109.54945312 185.144375 110.34765625 185.21875 C120.64375714 185.68063116 131.44068926 182.52185132 141 179 C142.73956658 180.73956658 142.37190386 183.1936622 142.5625 185.5625 C142.64628906 186.57441406 142.73007813 187.58632812 142.81640625 188.62890625 C142.87699219 189.41136719 142.93757812 190.19382813 143 191 C139.66666667 191.66666667 136.33333333 192.33333333 133 193 C132.30277832 193.16685303 131.60555664 193.33370605 130.88720703 193.50561523 C123.77551357 195.11915024 116.8994389 195.332888 109.625 195.3125 C108.48289062 195.32861328 107.34078125 195.34472656 106.1640625 195.36132812 C99.30312297 195.36522639 93.26244029 194.60775438 86.67089844 192.68188477 C81.00786112 191.23610202 75.93391329 191.24024835 70.5 193.375 C67.95615238 194.90551148 67.95615238 194.90551148 66 197 C65.83312552 199.58354218 65.83312552 199.58354218 66 202 C71.34271488 205.06921919 76.73984851 206.96281401 82.625 208.6875 C83.35323975 208.90172607 84.08147949 209.11595215 84.83178711 209.33666992 C108.11281598 215.98574237 135.44366546 213.10388111 157 202 C160.86341376 196.20487937 159.48855948 187.43633856 158.53515625 180.73046875 C155.72825477 168.05788986 149.14305204 156.75046154 138.11547852 149.69799805 C132.05991141 145.96476513 126.76263497 142.97530376 119.61328125 142.32421875 C118.59169922 142.21787109 117.57011719 142.11152344 116.51757812 142.00195312 C114.40132092 141.79432521 112.28410569 141.59621484 110.16601562 141.40820312 C99.50703769 140.26545377 91.51827935 136.85480851 84.6953125 128.4296875 C78.67956818 119.80804471 77.50920635 110.27646916 79 100 C81.05534613 92.68036812 84.08174678 85.73352154 90.48046875 81.26953125 C97.56511736 77.45629325 103.50831697 75.49009365 111.47265625 74.62109375 C127.85026732 72.77173991 139.1741269 67.11533409 149.95703125 54.69921875 C157.14839143 45.19782318 160.84205774 32.2191225 160.3984375 20.34375 C160.11584316 17.76138892 160.11584316 17.76138892 158.125 15.0625 C146.68761534 7.51382613 130.57990466 4.52146834 117 4 C116.01902344 3.9484375 115.03804688 3.896875 114.02734375 3.84375 C99.58397577 3.43832213 83.23931666 4.95733249 70 11 Z " fill="#FEFEFE" transform="translate(0,0)"/>
<path d="M0 0 C0.99 0.33 1.98 0.66 3 1 C2.0035696 3.58420034 0.96086363 6.07744257 -0.2890625 8.55078125 C-5.01377543 18.31795097 -6.10827635 29.03336685 -2.5 39.4375 C1.91732998 48.61195458 8.52302326 54.44922673 18 58 C21.90041104 58.77759444 25.78753495 59.08133121 29.75 59.375 C43.61798652 60.77294399 55.72095039 64.95436209 65 76 C73.47006249 88.21299504 78.29372332 101.97340313 76 117 C73.18616801 121.02475969 69.17262229 122.45802233 64.6875 124.0625 C63.61592651 124.44656006 63.61592651 124.44656006 62.52270508 124.83837891 C36.65700627 133.81551639 8.89461875 132.16108741 -16 121 C-17 120 -17 120 -17.375 117.6875 C-17 115 -17 115 -14.6875 112.75 C-9.57744808 109.42252433 -4.90788546 109.56164333 1 110 C2.85161493 110.45546585 4.6930449 110.9538751 6.5234375 111.48828125 C13.13544861 113.19778501 19.38167882 113.4962722 26.1875 113.4375 C27.35990234 113.43427734 28.53230469 113.43105469 29.74023438 113.42773438 C38.16164506 113.29347329 45.8672448 112.23710283 53.9375 109.875 C57 109 57 109 60 109 C59.67 105.37 59.34 101.74 59 98 C54.90430198 98 52.08527441 98.75085362 48.1875 99.9375 C29.73654001 105.55125991 12.84242258 102.07105807 -5 96 C-5.47566406 96.74443359 -5.47566406 96.74443359 -5.9609375 97.50390625 C-10.89438052 104.68601804 -18.16279272 111.35586841 -27 113 C-37.07848091 112.04254431 -46.61019245 100.19890656 -53 93 C-66.78141534 75.58947862 -74.24954675 56.13344387 -76 34 C-72.40068251 31.600455 -71.23696577 31.18519889 -67 32 C-59.08578847 37.27614102 -57.22830676 47.39111103 -54.63476562 55.93701172 C-50.27907982 70.09299057 -42.14991168 80.52684273 -32 91 C-31.45859375 91.61230469 -30.9171875 92.22460938 -30.359375 92.85546875 C-28.91236526 94.34113712 -28.91236526 94.34113712 -26 93.8125 C-22.85098417 93.13025087 -22.85098417 93.13025087 -20 91 C-19.27034634 88.43717258 -19.27034634 88.43717258 -19 86 C-19.85658203 85.62875 -19.85658203 85.62875 -20.73046875 85.25 C-31.81872375 79.1428716 -40.78512614 64.59090312 -45 53 C-44.65625 50.6484375 -44.65625 50.6484375 -44 49 C-43.34 49.66 -42.68 50.32 -42 51 C-42 49.68 -42 48.36 -42 47 C-42 45.68 -42 44.36 -42 43 C-41.01 42.67 -40.02 42.34 -39 42 C-38.67 41.01 -38.34 40.02 -38 39 C-37.01 39 -36.02 39 -35 39 C-34.67 37.68 -34.34 36.36 -34 35 C-33.2265625 36.7325 -33.2265625 36.7325 -32.4375 38.5 C-32.07140625 39.3146875 -31.7053125 40.129375 -31.328125 40.96875 C-30.32801335 43.25135777 -29.36466085 45.53765511 -28.421875 47.84375 C-24.31960101 57.75316966 -20.08839372 66.66566499 -11 73 C-10.60232863 65.3853297 -10.92157486 58.08726981 -14 51 C-15.91018444 48.85539144 -15.91018444 48.85539144 -18 47 C-19.66666667 45 -21.33333333 43 -23 41 C-24.31543863 39.64900897 -25.64175118 38.30794331 -27 37 C-23.25212088 37.50452219 -19.67363066 38.08159233 -16 39 C-15.505 43.455 -15.505 43.455 -15 48 C-14.01 48 -13.02 48 -12 48 C-11.505 47.01 -11.505 47.01 -11 46 C-10.67 46.66 -10.34 47.32 -10 48 C-9.34 47.67 -8.68 47.34 -8 47 C-7.97263293 45.60427948 -7.95344011 44.20839779 -7.9375 42.8125 C-7.92589844 42.03519531 -7.91429688 41.25789063 -7.90234375 40.45703125 C-7.93428186 37.99188157 -7.93428186 37.99188157 -8.4921875 35.58984375 C-10.10507134 27.36413616 -9.17226029 19.01020981 -7 11 C-6.34 11 -5.68 11 -5 11 C-5 9.02 -5 7.04 -5 5 C-4.01 4.67 -3.02 4.34 -2 4 C-0.79117904 1.99983534 -0.79117904 1.99983534 0 0 Z " fill="#753867" transform="translate(83,82)"/>
<path d="M0 0 C1.890625 0.7734375 1.890625 0.7734375 3.203125 3.3984375 C4.23267936 8.45261347 3.7825587 12.06389792 1.390625 16.6484375 C-0.62098636 19.41623854 -3.03434497 21.70602618 -5.484375 24.0859375 C-9.78926293 28.29923207 -12.99140945 32.64360033 -16.109375 37.7734375 C-16.61210938 38.54300781 -17.11484375 39.31257813 -17.6328125 40.10546875 C-24.60023227 51.05174499 -27.82251762 61.96248415 -29.109375 74.7734375 C-25.479375 75.7634375 -21.849375 76.7534375 -18.109375 77.7734375 C-18.17125 76.6390625 -18.233125 75.5046875 -18.296875 74.3359375 C-18.32317722 69.43495759 -16.86949894 65.2994705 -15.109375 60.7734375 C-14.449375 60.7734375 -13.789375 60.7734375 -13.109375 60.7734375 C-13.109375 63.7434375 -13.109375 66.7134375 -13.109375 69.7734375 C-12.01625 69.2578125 -10.923125 68.7421875 -9.796875 68.2109375 C-6.109375 66.7734375 -6.109375 66.7734375 -3.109375 67.7734375 C-3.06039062 66.86980469 -3.01140625 65.96617188 -2.9609375 65.03515625 C-2.88617188 63.85566406 -2.81140625 62.67617187 -2.734375 61.4609375 C-2.66476563 60.28917969 -2.59515625 59.11742187 -2.5234375 57.91015625 C-2.109375 54.7734375 -2.109375 54.7734375 -0.109375 51.7734375 C2.015625 51.0859375 2.015625 51.0859375 3.890625 50.7734375 C3.890625 51.4334375 3.890625 52.0934375 3.890625 52.7734375 C4.550625 52.7734375 5.210625 52.7734375 5.890625 52.7734375 C6.1175 52.22171875 6.344375 51.67 6.578125 51.1015625 C8.27788426 48.08651333 10.43867316 45.96113381 12.890625 43.5234375 C13.7775 42.63140625 14.664375 41.739375 15.578125 40.8203125 C17.890625 38.7734375 17.890625 38.7734375 19.890625 38.7734375 C20.87597847 47.76674299 19.29658194 54.23210158 15.67724609 62.29443359 C12.5386183 69.32171135 10.7060723 76.29379462 8.890625 83.7734375 C4.600625 82.7834375 0.310625 81.7934375 -4.109375 80.7734375 C-4.109375 81.4334375 -4.109375 82.0934375 -4.109375 82.7734375 C-3.490625 82.8559375 -2.871875 82.9384375 -2.234375 83.0234375 C-0.109375 83.7734375 -0.109375 83.7734375 1.203125 85.6484375 C1.890625 87.7734375 1.890625 87.7734375 0.890625 90.7734375 C-0.429375 90.7734375 -1.749375 90.7734375 -3.109375 90.7734375 C-2.779375 92.7534375 -2.449375 94.7334375 -2.109375 96.7734375 C-0.871875 96.804375 -0.871875 96.804375 0.390625 96.8359375 C5.35959203 98.16691081 8.45468182 101.01215097 11.890625 104.7734375 C13.203125 107.6484375 13.203125 107.6484375 13.890625 109.7734375 C14.880625 110.1034375 15.870625 110.4334375 16.890625 110.7734375 C20.220219 118.07662104 20.26136577 125.90549457 19.890625 133.7734375 C6.43296894 126.13902614 0.4312226 109.87318793 -4.109375 95.7734375 C-4.604375 97.2584375 -4.604375 97.2584375 -5.109375 98.7734375 C-6.099375 98.7734375 -7.089375 98.7734375 -8.109375 98.7734375 C-8.604375 100.7534375 -8.604375 100.7534375 -9.109375 102.7734375 C-10.099375 102.7734375 -11.089375 102.7734375 -12.109375 102.7734375 C-11.449375 105.0834375 -10.789375 107.3934375 -10.109375 109.7734375 C-11.099375 110.4334375 -12.089375 111.0934375 -13.109375 111.7734375 C-16.109375 109.7734375 -16.109375 109.7734375 -16.796875 106.7734375 C-17.28863295 102.1214073 -17.19396405 97.44463288 -17.109375 92.7734375 C-18.223125 92.8353125 -19.336875 92.8971875 -20.484375 92.9609375 C-29.80516719 92.92800184 -37.58833917 89.09313683 -44.796875 83.453125 C-47.55119291 79.92825387 -46.78581739 75.18386139 -46.40673828 70.92529297 C-42.64564327 43.7083049 -26.68264212 18.32014289 -5.171875 1.5234375 C-2.109375 -0.2265625 -2.109375 -0.2265625 0 0 Z " fill="#B33667" transform="translate(53.109375,22.2265625)"/>
<path d="M0 0 C5.09090452 0.42491014 8.25837433 4.55067785 11.48046875 8.20703125 C19.98202677 20.37737254 24.76913075 34.21359199 22.48046875 49.20703125 C19.66663676 53.23179094 15.65309104 54.66505358 11.16796875 56.26953125 C10.45358643 56.52557129 9.7392041 56.78161133 9.00317383 57.04541016 C-16.86252498 66.02254764 -44.6249125 64.36811866 -69.51953125 53.20703125 C-70.51953125 52.20703125 -70.51953125 52.20703125 -70.89453125 49.89453125 C-70.51953125 47.20703125 -70.51953125 47.20703125 -68.20703125 44.95703125 C-63.09697933 41.62955558 -58.42741671 41.76867458 -52.51953125 42.20703125 C-50.66791632 42.6624971 -48.82648635 43.16090635 -46.99609375 43.6953125 C-40.38408264 45.40481626 -34.13785243 45.70330345 -27.33203125 45.64453125 C-26.15962891 45.64130859 -24.98722656 45.63808594 -23.77929688 45.63476562 C-15.35788619 45.50050454 -7.65228645 44.44413408 0.41796875 42.08203125 C3.48046875 41.20703125 3.48046875 41.20703125 6.48046875 41.20703125 C6.15046875 37.57703125 5.82046875 33.94703125 5.48046875 30.20703125 C1.38477073 30.20703125 -1.43425684 30.95788487 -5.33203125 32.14453125 C-21.72831624 37.13315013 -37.20589691 35.30190427 -53.27758789 29.8840332 C-56.16445527 28.91206188 -58.44780565 28.20703125 -61.51953125 28.20703125 C-61.18953125 27.21703125 -60.85953125 26.22703125 -60.51953125 25.20703125 C-54.00161733 24.85293935 -49.34431676 25.16801273 -43.51953125 28.20703125 C-44.32334533 22.08163622 -44.32334533 22.08163622 -47.64453125 17.14453125 C-48.57265625 16.68046875 -48.57265625 16.68046875 -49.51953125 16.20703125 C-43.12838057 16.08171457 -43.12838057 16.08171457 -40.12231445 16.70043945 C-35.36683746 17.62602005 -30.53686398 17.39161292 -25.70703125 17.39453125 C-24.65193359 17.40677734 -23.59683594 17.41902344 -22.50976562 17.43164062 C-16.48116503 17.44290904 -11.29144621 16.9685445 -5.51953125 15.20703125 C-12.4359187 8.73686235 -21.47445426 7.64409956 -30.51953125 6.20703125 C-30.51953125 5.87703125 -30.51953125 5.54703125 -30.51953125 5.20703125 C-25.06183314 5.09564966 -19.90443766 5.29045144 -14.51953125 6.20703125 C-14.21015625 5.40265625 -13.90078125 4.59828125 -13.58203125 3.76953125 C-11.21557768 0.82939196 -10.71972635 0.78714835 -7.14453125 0.39453125 C-4.7582298 0.2428248 -2.38388734 0.19588532 0 0 Z " fill="#463C6A" transform="translate(136.51953125,149.79296875)"/>
<path d="M0 0 C1.890625 0.7734375 1.890625 0.7734375 3.203125 3.3984375 C4.23267936 8.45261347 3.7825587 12.06389792 1.390625 16.6484375 C-0.62098636 19.41623854 -3.03434497 21.70602618 -5.484375 24.0859375 C-9.78926293 28.29923207 -12.99140945 32.64360033 -16.109375 37.7734375 C-16.61210938 38.54300781 -17.11484375 39.31257813 -17.6328125 40.10546875 C-24.82172424 51.39972348 -28.05933261 62.44949502 -28.828125 75.65625 C-29.109375 78.7734375 -29.109375 78.7734375 -30.109375 80.7734375 C-29.449375 80.7734375 -28.789375 80.7734375 -28.109375 80.7734375 C-28.439375 82.4234375 -28.769375 84.0734375 -29.109375 85.7734375 C-43.33518145 84.54763105 -43.33518145 84.54763105 -46.109375 81.7734375 C-48.96554888 61.38252527 -38.09205297 39.41014316 -26.296875 23.4609375 C-7.71632168 -0.82879011 -7.71632168 -0.82879011 0 0 Z " fill="#D73064" transform="translate(53.109375,22.2265625)"/>
<path d="M0 0 C7.91421153 5.27614102 9.77169324 15.39111103 12.36523438 23.93701172 C15.14608201 32.97476652 19.22567645 42.22567645 26 49 C26 50.32 26 51.64 26 53 C24.281952 53.89663451 22.54996503 54.76659588 20.8125 55.625 C19.36810547 56.35589844 19.36810547 56.35589844 17.89453125 57.1015625 C15 58 15 58 12.41796875 57.578125 C9.07577813 55.39679219 7.41538817 52.52603105 5.5 49.125 C5.1090918 48.44373047 4.71818359 47.76246094 4.31542969 47.06054688 C-3.22758901 33.67999667 -9 17.55938735 -9 2 C-5.40068251 -0.399545 -4.23696577 -0.81480111 0 0 Z " fill="#A23567" transform="translate(16,114)"/>
<path d="M0 0 C1.31387695 -0.01369629 2.62775391 -0.02739258 3.98144531 -0.04150391 C14.15604901 0.00589729 22.81118792 1.59947517 32.25 5.375 C32.25 9.665 32.25 13.955 32.25 18.375 C27.82946469 17.63824412 25.1935596 16.9539257 21.25 15.375 C6.09405847 12.85511486 -13.13634549 11.7295382 -27.5625 17.5 C-29.75 18.375 -29.75 18.375 -32.75 18.375 C-35.00552839 13.86394322 -35.15564287 10.32384301 -34.75 5.375 C-25.12531647 -1.04145569 -11.12595659 0.05443873 0 0 Z " fill="#FCF8FA" transform="translate(110.75,19.625)"/>
<path d="M0 0 C13.45605701 3.68408551 13.45605701 3.68408551 17 9 C18.77948476 20.5045759 14.78372168 34.64433295 8 44 C0.45387867 53.62020147 -8.14382857 60.5189134 -20 64 C-21.32 64 -22.64 64 -24 64 C-24 63.01 -24 62.02 -24 61 C-22.68 61 -21.36 61 -20 61 C-20.32504259 56.17805357 -20.32504259 56.17805357 -22.5625 52.0625 C-23.2740625 51.5365625 -23.2740625 51.5365625 -24 51 C-24 51.99 -24 52.98 -24 54 C-26.31 54 -28.62 54 -31 54 C-31 53.34 -31 52.68 -31 52 C-31.99 52 -32.98 52 -34 52 C-34 51.34 -34 50.68 -34 50 C-32.99839844 49.75765625 -31.99679688 49.5153125 -30.96484375 49.265625 C-21.01329064 46.78553871 -21.01329064 46.78553871 -12 42 C-20.76356463 38.26737062 -29.61195934 38.29369275 -39 38 C-37.15925274 35.54783846 -36.22128237 35.03350934 -33.13671875 34.56640625 C-24.10360517 34.55617622 -16.49702624 35.90225544 -8 39 C-7 40 -7 40 -6.9375 43.0625 C-6.958125 44.031875 -6.97875 45.00125 -7 46 C-8.98 46.495 -8.98 46.495 -11 47 C-11.33 49.97 -11.66 52.94 -12 56 C-9.03 55.505 -9.03 55.505 -6 55 C-5.79375 53.88625 -5.5875 52.7725 -5.375 51.625 C-4.92125 50.42875 -4.4675 49.2325 -4 48 C-3.05125 47.690625 -2.1025 47.38125 -1.125 47.0625 C2.04800241 46.34169929 2.04800241 46.34169929 3.2109375 44.1484375 C3.8883672 42.70698933 4.53353637 41.24979994 5.140625 39.77734375 C6 38 6 38 8 37 C12.59196293 28.27948325 11.26371583 17.51330453 11 8 C8.525 7.505 8.525 7.505 6 7 C5.505 5.515 5.505 5.515 5 4 C2.49552484 2.78130071 2.49552484 2.78130071 0 2 C0 1.34 0 0.68 0 0 Z " fill="#933B66" transform="translate(143,9)"/>
<path d="M0 0 C3.50288524 2.71757764 4.44056869 6.52721629 5.8125 10.5625 C7.90492746 16.46518747 10.33979587 21.59993799 13.74609375 26.8828125 C15.50837376 29.85837564 16.24494396 32.63656856 17 36 C17.33 36.99 17.66 37.98 18 39 C19.485 39.495 19.485 39.495 21 40 C21 40.99 21 41.98 21 43 C17.025 46.09166667 17.025 46.09166667 14.078125 45.828125 C10.56602686 44.42856709 8.50827066 41.55592104 6 38.8125 C4.18414045 36.86133166 4.18414045 36.86133166 1.97265625 36.5703125 C-2.54233844 35.2649873 -4.81081888 28.86667412 -7 25 C-10.14666667 19.144 -10.14666667 19.144 -9.6875 15.5625 C-9.460625 15.046875 -9.23375 14.53125 -9 14 C-8.34 14.66 -7.68 15.32 -7 16 C-7 14.68 -7 13.36 -7 12 C-7 10.68 -7 9.36 -7 8 C-6.01 7.67 -5.02 7.34 -4 7 C-3.67 6.01 -3.34 5.02 -3 4 C-2.01 4 -1.02 4 0 4 C0 2.68 0 1.36 0 0 Z " fill="#8F3766" transform="translate(48,117)"/>
<path d="M0 0 C1.34868164 0.04060547 1.34868164 0.04060547 2.72460938 0.08203125 C8.66072169 0.34814764 14.28883392 1.1149832 19.6875 3.75 C20.1825 4.74 20.1825 4.74 20.6875 5.75 C11.53932642 10.15592183 3.94555861 13.11635924 -6.3125 12.75 C-6.3125 13.41 -6.3125 14.07 -6.3125 14.75 C-8.91561992 15.42099984 -11.51985398 16.08695338 -14.125 16.75 C-15.23198242 17.03617188 -15.23198242 17.03617188 -16.36132812 17.328125 C-19.41785341 18.10262914 -22.14623478 18.75 -25.3125 18.75 C-25.6425 14.13 -25.9725 9.51 -26.3125 4.75 C-24.78625 4.110625 -23.26 3.47125 -21.6875 2.8125 C-20.82898438 2.45285156 -19.97046875 2.09320313 -19.0859375 1.72265625 C-12.69683715 -0.51802824 -6.66737435 -0.31142725 0 0 Z " fill="#FDFBFC" transform="translate(111.3125,46.25)"/>
<path d="M0 0 C0.98535347 8.99330549 -0.59404306 15.45866408 -4.21337891 23.52099609 C-7.33571975 30.51180795 -9.25441268 37.55143798 -11 45 C-14.96 44.01 -18.92 43.02 -23 42 C-23.38981313 35.87081054 -22.07831019 30.95619455 -20.0625 25.1875 C-19.5986792 23.85900024 -19.5986792 23.85900024 -19.12548828 22.50366211 C-16.36156872 15.09021564 -12.93856515 10.2923423 -7 5 C-6.01565758 3.96322288 -5.03540216 2.92252002 -4.0625 1.875 C-2 0 -2 0 0 0 Z " fill="#FDFAFB" transform="translate(73,61)"/>
<path d="M0 0 C1.19625 0.268125 2.3925 0.53625 3.625 0.8125 C16.16876075 3.63162982 16.16876075 3.63162982 28.8125 5.9375 C34.85379805 7.01725933 40.82051837 8.62238368 45.0625 13.25 C45.371875 13.8275 45.68125 14.405 46 15 C38.99978391 16.82078159 32.53341429 17.34924766 25.3125 17.3125 C24.26191406 17.31121094 23.21132812 17.30992187 22.12890625 17.30859375 C13.9909727 17.20837289 6.87753893 16.14841971 -1 14 C-0.67 9.38 -0.34 4.76 0 0 Z " fill="#FBFAFB" transform="translate(86,151)"/>
<path d="M0 0 C6.375 -0.125 6.375 -0.125 9.4206543 0.48413086 C12.0096587 1.00193174 14.44632292 1.20321632 17.08203125 1.31640625 C18.01337891 1.35830078 18.94472656 1.40019531 19.90429688 1.44335938 C20.86400391 1.48267578 21.82371094 1.52199219 22.8125 1.5625 C23.79154297 1.60568359 24.77058594 1.64886719 25.77929688 1.69335938 C28.18607027 1.7990226 30.59293983 1.90112327 33 2 C33 2.66 33 3.32 33 4 C33.99 4.33 34.98 4.66 36 5 C35 8 35 8 32.5 10.4375 C30.03542442 12.96368997 29.61077559 13.73096247 29 17 C15.91858897 18.47305975 6.21652006 17.23523201 -6.23828125 12.86328125 C-8.9949779 11.85082407 -8.9949779 11.85082407 -12 12 C-11.67 11.01 -11.34 10.02 -11 9 C-4.48208608 8.6459081 0.17521449 8.96098148 6 12 C5.19618592 5.87460497 5.19618592 5.87460497 1.875 0.9375 C1.25625 0.628125 0.6375 0.31875 0 0 Z " fill="#5A3C6B" transform="translate(87,166)"/>
<path d="M0 0 C0.33 0.66 0.66 1.32 1 2 C1.845625 2.061875 2.69125 2.12375 3.5625 2.1875 C8.54364812 3.36486228 11.588679 6.26566708 15 10 C16.3125 12.875 16.3125 12.875 17 15 C17.99 15.33 18.98 15.66 20 16 C23.329594 23.30318354 23.37074077 31.13205707 23 39 C11.16986404 32.28886666 5.32557839 19.13373971 1 6.6875 C0 3 0 3 0 0 Z " fill="#FBF9FB" transform="translate(50,117)"/>
<path d="M0 0 C0.99 0.33 1.98 0.66 3 1 C2.0035696 3.58420034 0.96086363 6.07744257 -0.2890625 8.55078125 C-4.74889062 17.77036745 -5.71242463 27.01367186 -3.265625 36.99609375 C-1.31228217 42.25570948 1.55532827 46.59847501 5 51 C4.34 51.99 3.68 52.98 3 54 C-1 53 -1 53 -2.875 52.3125 C-5.92504266 51.86396431 -8.14814488 52.94605354 -11 54 C-11.66 54 -12.32 54 -13 54 C-13.495 52.515 -13.495 52.515 -14 51 C-15.30973998 49.6434836 -16.64802142 48.31442362 -18 47 C-19.66666667 45 -21.33333333 43 -23 41 C-24.31543863 39.64900897 -25.64175118 38.30794331 -27 37 C-23.25212088 37.50452219 -19.67363066 38.08159233 -16 39 C-15.67 41.97 -15.34 44.94 -15 48 C-14.01 48 -13.02 48 -12 48 C-11.67 47.34 -11.34 46.68 -11 46 C-10.67 46.66 -10.34 47.32 -10 48 C-9.01 47.505 -9.01 47.505 -8 47 C-7.97263293 45.60427948 -7.95344011 44.20839779 -7.9375 42.8125 C-7.92589844 42.03519531 -7.91429688 41.25789063 -7.90234375 40.45703125 C-7.93428186 37.99188157 -7.93428186 37.99188157 -8.4921875 35.58984375 C-10.10507134 27.36413616 -9.17226029 19.01020981 -7 11 C-6.34 11 -5.68 11 -5 11 C-5 9.02 -5 7.04 -5 5 C-4.01 4.67 -3.02 4.34 -2 4 C-0.79117904 1.99983534 -0.79117904 1.99983534 0 0 Z " fill="#8B3765" transform="translate(83,82)"/>
<path d="M0 0 C3.94571551 3.25985494 6.60817145 6.53717341 7.9375 11.5 C7.958125 12.325 7.97875 13.15 8 14 C7.34 14 6.68 14 6 14 C5.67 18.29 5.34 22.58 5 27 C-1 27 -1 27 -3.6875 24.9375 C-8.15004984 18.96344134 -9 9.1991042 -9 2 C-5.40068251 -0.399545 -4.23696577 -0.81480111 0 0 Z " fill="#B63668" transform="translate(16,114)"/>
<path d="M0 0 C0 0.66 0 1.32 0 2 C1.32 2 2.64 2 4 2 C4 2.66 4 3.32 4 4 C2.68 4 1.36 4 0 4 C-0.33 5.32 -0.66 6.64 -1 8 C0.32 8 1.64 8 3 8 C3 8.99 3 9.98 3 11 C5.31 11 7.62 11 10 11 C10 10.34 10 9.68 10 9 C13.96 9 17.92 9 22 9 C22 9.66 22 10.32 22 11 C27.28 11.33 32.56 11.66 38 12 C38 12.33 38 12.66 38 13 C36.85168701 13.029729 36.85168701 13.029729 35.68017578 13.06005859 C32.16147896 13.15619205 28.64330552 13.26550916 25.125 13.375 C23.92101562 13.4059375 22.71703125 13.436875 21.4765625 13.46875 C15.17090446 13.67436928 9.21859679 14.1203815 3.07543945 15.59667969 C-0.1973695 16.23268491 -2.82000684 15.90856947 -6 15 C-7.9375 13.0625 -7.9375 13.0625 -9 11 C-9 10.34 -9 9.68 -9 9 C-10.98 9 -12.96 9 -15 9 C-15.33 7.68 -15.66 6.36 -16 5 C-14.41800369 4.35089846 -12.83434276 3.70585306 -11.25 3.0625 C-10.36828125 2.70285156 -9.4865625 2.34320313 -8.578125 1.97265625 C-5.68208823 0.88006056 -3.10486338 0 0 0 Z " fill="#CD3D6B" transform="translate(84,7)"/>
<path d="M0 0 C2.79259794 2.51931619 4.59534416 5.37171375 6.5625 8.5625 C8.98722049 12.51395896 8.98722049 12.51395896 12 16 C12 17.32 12 18.64 12 20 C10.281952 20.89663451 8.54996503 21.76659588 6.8125 22.625 C5.84957031 23.11226562 4.88664062 23.59953125 3.89453125 24.1015625 C1 25 1 25 -1.6875 24.3984375 C-4.26192684 22.84160506 -5.31502196 21.58612081 -6.8125 19 C-7.23144531 18.29875 -7.65039062 17.5975 -8.08203125 16.875 C-9 15 -9 15 -9 13 C-7.35 13 -5.7 13 -4 13 C-3.690625 12.360625 -3.38125 11.72125 -3.0625 11.0625 C-2 9 -2 9 -1 8 C-0.76924918 6.65252916 -0.58846937 5.29622435 -0.4375 3.9375 C-0.293125 2.638125 -0.14875 1.33875 0 0 Z " fill="#913A68" transform="translate(30,147)"/>
<path d="M0 0 C-0.99 0.33 -1.98 0.66 -3 1 C-3 1.66 -3 2.32 -3 3 C-4.45635371 3.22174933 -5.91522956 3.42698698 -7.375 3.625 C-8.18710938 3.74101562 -8.99921875 3.85703125 -9.8359375 3.9765625 C-10.55007812 3.98429688 -11.26421875 3.99203125 -12 4 C-12.66 3.34 -13.32 2.68 -14 2 C-16.58354218 1.83312552 -16.58354218 1.83312552 -19 2 C-19 2.33 -19 2.66 -19 3 C-17.35 3 -15.7 3 -14 3 C-12.50178941 6.37097383 -12 8.20442119 -12 12 C-18.40653999 12.55709043 -23.23701287 10.7490111 -29 8 C-30 7 -30 7 -30.375 4.6875 C-30 2 -30 2 -27.6875 -0.25 C-19.18384161 -5.78726593 -9.06270224 -2.61603776 0 0 Z " fill="#583A66" transform="translate(96,195)"/>
<path d="M0 0 C13.45605701 3.68408551 13.45605701 3.68408551 17 9 C18.77338609 20.46514727 14.63478135 33.13913264 9 43 C7.68 42.67 6.36 42.34 5 42 C5.375 40.0625 5.375 40.0625 6 38 C6.99 37.505 6.99 37.505 8 37 C12.59196293 28.27948325 11.26371583 17.51330453 11 8 C9.35 7.67 7.7 7.34 6 7 C5.67 6.01 5.34 5.02 5 4 C2.49552484 2.78130071 2.49552484 2.78130071 0 2 C0 1.34 0 0.68 0 0 Z " fill="#A34E74" transform="translate(143,9)"/>
<path d="M0 0 C0.66 0 1.32 0 2 0 C2.10884119 1.41493551 2.18597617 2.83232943 2.25 4.25 C2.29640625 5.03890625 2.3428125 5.8278125 2.390625 6.640625 C1.8349198 9.99708442 0.69440779 10.93682925 -2 13 C-4.60076699 14.26440166 -7.271489 15.23598122 -10 16.1875 C-11.06734375 16.57711914 -11.06734375 16.57711914 -12.15625 16.97460938 C-18.48859685 19.26063384 -23.52675193 20.13971045 -30.25 20.0625 C-30.99507813 20.05798828 -31.74015625 20.05347656 -32.5078125 20.04882812 C-34.3385764 20.03709246 -36.16929873 20.0191585 -38 20 C-38 19.67 -38 19.34 -38 19 C-36.90300781 18.74605469 -35.80601563 18.49210937 -34.67578125 18.23046875 C-33.22124786 17.88325755 -31.76682658 17.53557642 -30.3125 17.1875 C-29.59126953 17.02185547 -28.87003906 16.85621094 -28.12695312 16.68554688 C-23.89745156 15.66196887 -20.69691781 14.36804275 -17 12 C-14.5 11.05078125 -14.5 11.05078125 -12 10.3125 C-11.175 10.06113281 -10.35 9.80976563 -9.5 9.55078125 C-6.92158812 8.98272488 -4.63144021 8.90132099 -2 9 C-1.34 6.03 -0.68 3.06 0 0 Z " fill="#2F355E" transform="translate(157,190)"/>
<path d="M0 0 C1.32 0.66 2.64 1.32 4 2 C3.34 5.63 2.68 9.26 2 13 C0.02 13.66 -1.96 14.32 -4 15 C-4 17.31 -4 19.62 -4 22 C-7.05263664 22.98120464 -8.94736336 22.98120464 -12 22 C-12.33 20.02 -12.66 18.04 -13 16 C-11.68 16 -10.36 16 -9 16 C-8.58219121 13.62694422 -8.58219121 13.62694422 -9 11 C-11.44496043 9.28288757 -11.44496043 9.28288757 -14 8 C-14 7.34 -14 6.68 -14 6 C-12.58249437 6.11509661 -11.16598831 6.24253658 -9.75 6.375 C-8.96109375 6.44460937 -8.1721875 6.51421875 -7.359375 6.5859375 C-5 7 -5 7 -1 9 C-0.67 6.03 -0.34 3.06 0 0 Z " fill="#A13866" transform="translate(63,97)"/>
<path d="M0 0 C13.3136354 -0.27513827 23.38335966 -0.19517676 35 7 C31.79619983 9.13586678 30.98060033 9.23132175 27.3125 9.125 C26.50425781 9.10695312 25.69601563 9.08890625 24.86328125 9.0703125 C23.94095703 9.03550781 23.94095703 9.03550781 23 9 C22.731875 9.804375 22.46375 10.60875 22.1875 11.4375 C21.795625 12.283125 21.40375 13.12875 21 14 C17.32192463 15.22602512 15.11756073 14.70295577 11.3125 14.0625 C10.13300781 13.86785156 8.95351562 13.67320312 7.73828125 13.47265625 C6.83464844 13.31667969 5.93101563 13.16070312 5 13 C5 12.67 5 12.34 5 12 C6.98 12 8.96 12 11 12 C11 11.34 11 10.68 11 10 C14.63 10 18.26 10 22 10 C22.33 8.35 22.66 6.7 23 5 C22.34 5 21.68 5 21 5 C21 4.34 21 3.68 21 3 C20.39414063 3.01160156 19.78828125 3.02320313 19.1640625 3.03515625 C6.47225869 3.17183721 6.47225869 3.17183721 1 2 C0.67 1.34 0.34 0.68 0 0 Z " fill="#5F3C66" transform="translate(102,142)"/>
<path d="M0 0 C1.10977845 3.38147259 0.99373843 4.01729386 -0.3125 7.625 C-2.85870866 12.40690407 -6.641194 15.76356988 -10.53125 19.46484375 C-13.44212649 22.45401913 -15.55669175 25.59431712 -17.6484375 29.1875 C-19.21047237 31.28225196 -20.60576208 32.02192834 -23 33 C-23 31.35 -23 29.7 -23 28 C-22.01 28 -21.02 28 -20 28 C-19.67 27.01 -19.34 26.02 -19 25 C-18.34 25 -17.68 25 -17 25 C-16.67 22.69 -16.34 20.38 -16 18 C-15.01 18 -14.02 18 -13 18 C-12.87625 17.195625 -12.87625 17.195625 -12.75 16.375 C-11.18947021 11.43332233 -7.88233692 7.36469199 -4 4 C-3.34 4 -2.68 4 -2 4 C-1.34 2.68 -0.68 1.36 0 0 Z " fill="#CD3E67" transform="translate(56,29)"/>
<path d="M0 0 C0.33 0.66 0.66 1.32 1 2 C1.66 2 2.32 2 3 2 C2.68289062 3.25683594 2.36578125 4.51367188 2.0390625 5.80859375 C0.83674773 11.2190102 0.55957725 16.53671872 0.375 22.0625 C0.33632812 23.02349609 0.29765625 23.98449219 0.2578125 24.97460938 C0.16461374 27.31622814 0.07880815 29.65786037 0 32 C1.32 32 2.64 32 4 32 C3.67 32.66 3.34 33.32 3 34 C-3.875 32.125 -3.875 32.125 -5 31 C-6.30077151 20.017772 -3.25354873 10.35325684 0 0 Z " fill="#C43E67" transform="translate(12,73)"/>
<path d="M0 0 C4 2 4 2 5 4 C5.09663965 6.18576146 5.12980327 8.37460848 5.125 10.5625 C5.12757813 11.73941406 5.13015625 12.91632813 5.1328125 14.12890625 C5 17 5 17 4 18 C-2.2781597 18.59227922 -2.2781597 18.59227922 -5.4375 16 C-5.953125 15.34 -6.46875 14.68 -7 14 C-6.67 13.34 -6.34 12.68 -6 12 C-2.9375 11.375 -2.9375 11.375 0 11 C0 7.37 0 3.74 0 0 Z " fill="#363B64" transform="translate(143,180)"/>
<path d="M0 0 C0.99 0 1.98 0 3 0 C0.87835435 6.53332154 -4.18407879 10.02265901 -10.1484375 13.11328125 C-11.74213135 13.79954534 -13.36828642 14.40980573 -15 15 C-15 14.34 -15 13.68 -15 13 C-17.64 13 -20.28 13 -23 13 C-23 12.67 -23 12.34 -23 12 C-19.7 12 -16.4 12 -13 12 C-12.71125 11.278125 -12.4225 10.55625 -12.125 9.8125 C-11.08333333 7.20833333 -10.04166667 4.60416667 -9 2 C-6.03 2 -3.06 2 0 2 C0 1.34 0 0.68 0 0 Z " fill="#663961" transform="translate(73,179)"/>
<path d="M0 0 C3.96 0 7.92 0 12 0 C12 0.66 12 1.32 12 2 C17.28 2.33 22.56 2.66 28 3 C28 3.33 28 3.66 28 4 C26.85168701 4.029729 26.85168701 4.029729 25.68017578 4.06005859 C22.16147896 4.15619205 18.64330552 4.26550916 15.125 4.375 C13.92101562 4.4059375 12.71703125 4.436875 11.4765625 4.46875 C5.17180267 4.67433999 -0.77303142 5.11885559 -6.91235352 6.60888672 C-10.21504207 7.22763389 -12.75612388 6.82822369 -16 6 C-16.33 5.34 -16.66 4.68 -17 4 C-13.04 4.33 -9.08 4.66 -5 5 C-5.33 4.01 -5.66 3.02 -6 2 C-4.02 2 -2.04 2 0 2 C0 1.34 0 0.68 0 0 Z " fill="#CA5B81" transform="translate(94,16)"/>
<path d="M0 0 C6.51791392 -0.3540919 11.17521449 -0.03901852 17 3 C17 3.66 17 4.32 17 5 C18.258125 4.938125 19.51625 4.87625 20.8125 4.8125 C23.62065146 4.67439419 24.59025178 4.64839787 26.76171875 6.51171875 C27.17035156 7.00285156 27.57898438 7.49398437 28 8 C19.80005751 8.88701301 13.08311545 6.70268309 5.44140625 4.09375 C2.1253264 2.84855446 2.1253264 2.84855446 -1 3 C-0.67 2.01 -0.34 1.02 0 0 Z " fill="#573960" transform="translate(76,175)"/>
<path d="M0 0 C0.99 0 1.98 0 3 0 C2.3865007 3.33295294 1.56295939 6.47204784 0.5 9.6875 C-1.0653684 14.76540237 -1.67362407 19.71045905 -2 25 C-3.32 25 -4.64 25 -6 25 C-7.06643639 15.32307723 -4.15735888 8.47556795 0 0 Z " fill="#C7426E" transform="translate(26,72)"/>
<path d="M0 0 C2 3 2 3 1.6003418 5.08129883 C1.30297119 5.86529053 1.00560059 6.64928223 0.69921875 7.45703125 C0.22258789 8.75543945 0.22258789 8.75543945 -0.26367188 10.08007812 C-0.60978516 10.98177734 -0.95589844 11.88347656 -1.3125 12.8125 C-4.33776084 20.7201439 -4.33776084 20.7201439 -6 29 C-6.33 29 -6.66 29 -7 29 C-7.21299142 21.90028611 -6.9177594 15.83201787 -5 9 C-5 8.071875 -5 7.14375 -5 6.1875 C-5 4 -5 4 -3 1 C-2.01 0.67 -1.02 0.34 0 0 Z " fill="#B63D6B" transform="translate(56,73)"/>
<path d="M0 0 C0.66 0.66 1.32 1.32 2 2 C1.87362565 9.32971212 -0.77212993 14.21707291 -5.4765625 19.73046875 C-7 21 -7 21 -10 21 C-7.80144982 13.24041115 -4.22754377 6.84514622 0 0 Z " fill="#D2426D" transform="translate(23,51)"/>
<path d="M0 0 C2 2 2 2 2.1875 5.5625 C2 9 2 9 1 10 C0.92686433 12.53049402 0.90752473 15.03304837 0.9375 17.5625 C0.94201172 18.27341797 0.94652344 18.98433594 0.95117188 19.71679688 C0.96299136 21.47790013 0.98092737 23.23896036 1 25 C0.01 24.67 -0.98 24.34 -2 24 C-2.88326255 19.40561013 -3.19415755 14.98930544 -3.25 10.3125 C-3.27578125 9.00925781 -3.3015625 7.70601562 -3.328125 6.36328125 C-3 3 -3 3 -1.484375 1.04296875 C-0.99453125 0.69878906 -0.5046875 0.35460938 0 0 Z " fill="#CD406A" transform="translate(65,14)"/>
<path d="M0 0 C0.33 0 0.66 0 1 0 C1.22786458 2.05078125 1.45572917 4.1015625 1.68359375 6.15234375 C1.81886614 8.01140229 1.81886614 8.01140229 3 9 C2.75514883 16.59038612 0.40865099 22.27074435 -3 29 C-4.32 28.67 -5.64 28.34 -7 28 C-6.625 26.0625 -6.625 26.0625 -6 24 C-5.34 23.67 -4.68 23.34 -4 23 C-0.74722039 15.71626383 -0.35718996 7.8581791 0 0 Z " fill="#99476E" transform="translate(155,23)"/>
<path d="M0 0 C0.99 0.33 1.98 0.66 3 1 C4.0625 3.328125 4.0625 3.328125 5 6.25 C5.99628864 9.32188996 6.94277507 11.90590901 8.625 14.671875 C10 17 10 17 10 20 C9.34 20 8.68 20 8 20 C7.360625 19.195625 6.72125 18.39125 6.0625 17.5625 C4.18964068 14.76279268 4.18964068 14.76279268 1 14 C0.04738513 9.23692563 -0.08333357 4.8333472 0 0 Z " fill="#78385B" transform="translate(75,112)"/>
<path d="M0 0 C1.32 0 2.64 0 4 0 C3.42846829 3.5622867 2.17941769 5.13056194 -0.4375 7.5625 C-2.69526817 9.67886307 -4.26012523 11.39018785 -6 14 C-9.125 14.1875 -9.125 14.1875 -12 14 C-9.34923407 9.54671324 -6.54224637 6.52615771 -2.48828125 3.296875 C-0.86616616 2.04943835 -0.86616616 2.04943835 0 0 Z " fill="#C0446E" transform="translate(65,45)"/>
<path d="M0 0 C4.11741421 0.2769154 7.62361212 0.98408713 11.54296875 2.23828125 C11.87296875 3.55828125 12.20296875 4.87828125 12.54296875 6.23828125 C11.41890625 5.92117187 10.29484375 5.6040625 9.13671875 5.27734375 C4.44327624 4.10398312 -0.13691947 3.80168953 -4.95703125 3.61328125 C-5.77945313 3.57460938 -6.601875 3.5359375 -7.44921875 3.49609375 C-9.45150135 3.40296433 -11.45423387 3.3195914 -13.45703125 3.23828125 C-9.61125026 -1.10572113 -5.52661253 -0.10881413 0 0 Z " fill="#964164" transform="translate(117.45703125,43.76171875)"/>
<path d="M0 0 C3.72908331 0.50199198 7.36147686 1.04207023 11 2 C11.10957031 2.61488281 11.21914062 3.22976562 11.33203125 3.86328125 C11.49058594 4.67152344 11.64914063 5.47976562 11.8125 6.3125 C11.96332031 7.11300781 12.11414063 7.91351563 12.26953125 8.73828125 C13.07572236 11.23445587 14.02052002 12.32422106 16 14 C15.67 14.99 15.34 15.98 15 17 C12.35118085 14.55493617 10.18311513 11.96122197 8.0625 9.0625 C5.6038744 5.71551605 3.02130563 2.84358177 0 0 Z " fill="#913B69" transform="translate(56,119)"/>
<path d="M0 0 C6.875 0.875 6.875 0.875 8 2 C8.04080783 3.99958364 8.04254356 6.00045254 8 8 C6.58603098 8.50757862 5.16868271 9.00574925 3.75 9.5 C2.96109375 9.7784375 2.1721875 10.056875 1.359375 10.34375 C-1 11 -1 11 -5 11 C-3.5361389 6.60841671 -1.02168662 6.12052567 3 4 C2.67 3.01 2.34 2.02 2 1 C1.34 0.67 0.68 0.34 0 0 Z " fill="#843359" transform="translate(128,47)"/>
<path d="M0 0 C0.33 1.32 0.66 2.64 1 4 C-0.32 3.34 -1.64 2.68 -3 2 C-3.58007812 2.72316406 -3.58007812 2.72316406 -4.171875 3.4609375 C-4.69265625 4.09257812 -5.2134375 4.72421875 -5.75 5.375 C-6.26046875 6.00148438 -6.7709375 6.62796875 -7.296875 7.2734375 C-9.14259955 9.14456193 -10.517984 10.13792574 -13 11 C-15.25 10.625 -15.25 10.625 -17 10 C-15.21079529 8.3514184 -13.4187995 6.70606879 -11.625 5.0625 C-10.86316406 4.35963867 -10.86316406 4.35963867 -10.0859375 3.64257812 C-4.59519739 -1.37855922 -4.59519739 -1.37855922 0 0 Z " fill="#CD4871" transform="translate(55,23)"/>
<path d="M0 0 C0.66 0 1.32 0 2 0 C1.3799425 3.90543681 -0.51383801 6.46060817 -2.8125 9.625 C-3.49957031 10.58664063 -4.18664063 11.54828125 -4.89453125 12.5390625 C-6.88299992 14.86324666 -8.18415095 15.92428239 -11 17 C-11 15.35 -11 13.7 -11 12 C-10.01 12 -9.02 12 -8 12 C-7.67 11.01 -7.34 10.02 -7 9 C-6.34 9 -5.68 9 -5 9 C-4.67 6.69 -4.34 4.38 -4 2 C-2.68 2 -1.36 2 0 2 C0 1.34 0 0.68 0 0 Z " fill="#C2466B" transform="translate(44,45)"/>
<path d="M0 0 C2.11044382 3.16566573 2.75552077 5.51197415 3.625 9.1875 C3.88539062 10.27417969 4.14578125 11.36085937 4.4140625 12.48046875 C4.60742188 13.31191406 4.80078125 14.14335937 5 15 C3.68 15.33 2.36 15.66 1 16 C-0.91302307 12.73386305 -1.35674661 10.00554752 -1.625 6.25 C-1.69976563 5.26515625 -1.77453125 4.2803125 -1.8515625 3.265625 C-1.90054687 2.51796875 -1.94953125 1.7703125 -2 1 C-1.34 0.67 -0.68 0.34 0 0 Z " fill="#A1486F" transform="translate(24,127)"/>
<path d="M0 0 C2.99555926 1.74218719 3.9277262 2.81246602 5.1953125 6.1015625 C5.65550781 7.84566406 5.65550781 7.84566406 6.125 9.625 C6.69660625 11.76498044 7.30999934 13.89520807 8 16 C8.66 16.33 9.32 16.66 10 17 C10 17.99 10 18.98 10 20 C9.01 20.33 8.02 20.66 7 21 C6.00988557 18.81690366 5.03294432 16.62932734 4.0625 14.4375 C3.78470703 13.82841797 3.50691406 13.21933594 3.22070312 12.59179688 C1.36408217 8.36406963 0.46734921 4.59658658 0 0 Z " fill="#9C466C" transform="translate(11,136)"/>
<path d="M0 0 C4.51391579 0.93685045 6.15973297 3.22917919 9.08984375 6.64453125 C9.49332031 7.31871094 9.89679687 7.99289063 10.3125 8.6875 C9.9825 9.6775 9.6525 10.6675 9.3125 11.6875 C6.3125 10.6875 6.3125 10.6875 4.5625 7.6875 C2.53607771 4.31608778 2.53607771 4.31608778 -1.4375 3.8125 C-3.04625 3.750625 -3.04625 3.750625 -4.6875 3.6875 C-2.6875 0.6875 -2.6875 0.6875 0 0 Z " fill="#AB4A70" transform="translate(12.6875,113.3125)"/>
<path d="M0 0 C-0.60824524 4.13606764 -1.74764594 7.46058648 -4 11 C-6.4375 11.75 -6.4375 11.75 -9 12 C-10.34904515 12.63427077 -11.68559405 13.29675096 -13 14 C-4.12418301 0 -4.12418301 0 0 0 Z " fill="#D1416C" transform="translate(38,35)"/>
<path d="M0 0 C0.33 0.66 0.66 1.32 1 2 C1.66 2 2.32 2 3 2 C2.57764318 4.29450585 2.13663083 6.58558438 1.6875 8.875 C1.44386719 10.15117188 1.20023438 11.42734375 0.94921875 12.7421875 C0 16 0 16 -3 18 C-4.34799697 13.49819881 -3.52972156 10.58916468 -2.0625 6.1875 C-1.68222656 5.02605469 -1.30195313 3.86460938 -0.91015625 2.66796875 C-0.60980469 1.78753906 -0.30945313 0.90710938 0 0 Z " fill="#C6496F" transform="translate(12,73)"/>
<path d="M0 0 C1.134375 0.020625 2.26875 0.04125 3.4375 0.0625 C4.0975 2.0425 4.7575 4.0225 5.4375 6.0625 C1.8075 5.7325 -1.8225 5.4025 -5.5625 5.0625 C-4.31580396 0.07571586 -4.31580396 0.07571586 0 0 Z " fill="#D52F61" transform="translate(83.5625,14.9375)"/>
<path d="M0 0 C3.47733117 1.15911039 3.71562011 1.68261541 5.3125 4.8125 C5.67988281 5.49957031 6.04726563 6.18664062 6.42578125 6.89453125 C7 9 7 9 6.10546875 11.26171875 C5.74066406 11.83535156 5.37585937 12.40898437 5 13 C3.046875 12.3515625 3.046875 12.3515625 1 11 C0.390625 8.3984375 0.390625 8.3984375 0.25 5.375 C0.19328125 4.37210937 0.1365625 3.36921875 0.078125 2.3359375 C0.05234375 1.56507812 0.0265625 0.79421875 0 0 Z " fill="#A5406A" transform="translate(36,121)"/>
<path d="M0 0 C0.7734375 0.495 0.7734375 0.495 1.5625 1 C1.5625 1.66 1.5625 2.32 1.5625 3 C-3.89858889 4.4002792 -8.13026568 3.42705634 -13.4375 2 C-11.13006834 -2.61486332 -4.13722502 -1.69732308 0 0 Z " fill="#A7456C" transform="translate(139.4375,19)"/>
<path d="M0 0 C1.03125 0.185625 2.0625 0.37125 3.125 0.5625 C6.76148442 0.97307082 9.45437009 0.778309 13 0 C13 0.66 13 1.32 13 2 C8.02829028 6.04674047 8.02829028 6.04674047 4.25 5.875 C2 5 2 5 0 3 C0 2.01 0 1.02 0 0 Z " fill="#64365A" transform="translate(51,175)"/>
<path d="M0 0 C1.62600941 0.0870005 3.25089678 0.1951781 4.875 0.3125 C5.77992187 0.37050781 6.68484375 0.42851563 7.6171875 0.48828125 C10 1 10 1 12 4 C12.99 4.66 13.98 5.32 15 6 C12.05672213 6.86106533 10.48442764 7.18517637 7.578125 6.07421875 C6.42570312 5.38779297 6.42570312 5.38779297 5.25 4.6875 C4.08210937 4.01267578 4.08210937 4.01267578 2.890625 3.32421875 C1 2 1 2 0 0 Z " fill="#B44870" transform="translate(10,106)"/>
<path d="M0 0 C9.88344059 0.61243542 9.88344059 0.61243542 13 4 C13 4.66 13 5.32 13 6 C6.45126631 6.37068304 6.45126631 6.37068304 4.25 4.5625 C3.8375 4.046875 3.425 3.53125 3 3 C2.01 2.67 1.02 2.34 0 2 C0 1.34 0 0.68 0 0 Z " fill="#963860" transform="translate(49,103)"/>
<path d="M0 0 C0.66 0.33 1.32 0.66 2 1 C2 1.99 2 2.98 2 4 C2.66 4.33 3.32 4.66 4 5 C0.09971775 7.60018816 -3.47434569 7.15085514 -8 7 C-5.42215154 4.35247996 -3.08351902 2.05567935 0 0 Z " fill="#3C345F" transform="translate(129,176)"/>
<path d="M0 0 C0.33 0 0.66 0 1 0 C0.34034961 6.86036401 -1.2362764 13.34443923 -3 20 C-3.33 20 -3.66 20 -4 20 C-4.31393637 12.91899067 -4.49130512 7.28434922 -1 1 C-0.67 0.67 -0.34 0.34 0 0 Z " fill="#A64A6C" transform="translate(53,82)"/>
<path d="M0 0 C0.99 0 1.98 0 3 0 C2.34728444 3.51705958 1.48606976 6.89325077 0.4375 10.3125 C0.16808594 11.19550781 -0.10132813 12.07851562 -0.37890625 12.98828125 C-0.58386719 13.65214844 -0.78882813 14.31601563 -1 15 C-1.66 15 -2.32 15 -3 15 C-2.22095672 4.44191344 -2.22095672 4.44191344 0 0 Z " fill="#B84970" transform="translate(26,72)"/>
<path d="M0 0 C1.27133789 0.00966797 1.27133789 0.00966797 2.56835938 0.01953125 C3.8899707 0.04466797 3.8899707 0.04466797 5.23828125 0.0703125 C6.57729492 0.08384766 6.57729492 0.08384766 7.94335938 0.09765625 C10.14610439 0.12121502 12.34830713 0.15410921 14.55078125 0.1953125 C14.55078125 0.5253125 14.55078125 0.8553125 14.55078125 1.1953125 C13.10445312 1.23398437 13.10445312 1.23398437 11.62890625 1.2734375 C10.365625 1.33015625 9.10234375 1.386875 7.80078125 1.4453125 C5.92132813 1.51492187 5.92132813 1.51492187 4.00390625 1.5859375 C0.14559489 2.26681597 -1.0583808 3.17657772 -3.44921875 6.1953125 C-3.77921875 5.2053125 -4.10921875 4.2153125 -4.44921875 3.1953125 C-5.43921875 2.8653125 -6.42921875 2.5353125 -7.44921875 2.1953125 C-4.2960709 0.09321393 -3.58818794 -0.0481636 0 0 Z " fill="#A23F65" transform="translate(98.44921875,32.8046875)"/>
<path d="M0 0 C1.79158489 -0.02696365 3.58328473 -0.04637917 5.375 -0.0625 C6.37273437 -0.07410156 7.37046875 -0.08570313 8.3984375 -0.09765625 C11 0 11 0 13 1 C13 1.66 13 2.32 13 3 C8.38 3 3.76 3 -1 3 C-0.67 2.01 -0.34 1.02 0 0 Z " fill="#C03C6B" transform="translate(107,15)"/>
<path d="M0 0 C0.66 0.66 1.32 1.32 2 2 C1.67 2.66 1.34 3.32 1 4 C-0.62463842 4.05395478 -2.24978541 4.09277195 -3.875 4.125 C-4.77992187 4.14820313 -5.68484375 4.17140625 -6.6171875 4.1953125 C-9 4 -9 4 -11 2 C-9.73392393 1.46770674 -8.46189588 0.94955456 -7.1875 0.4375 C-6.47980469 0.14746094 -5.77210937 -0.14257812 -5.04296875 -0.44140625 C-3 -1 -3 -1 0 0 Z " fill="#B9436E" transform="translate(92,35)"/>
<path d="M0 0 C1.2065625 0.0309375 1.2065625 0.0309375 2.4375 0.0625 C1.4475 2.7025 0.4575 5.3425 -0.5625 8.0625 C-1.2225 8.0625 -1.8825 8.0625 -2.5625 8.0625 C-2.8925 8.7225 -3.2225 9.3825 -3.5625 10.0625 C-3.58939216 8.58343108 -3.60884621 7.10422517 -3.625 5.625 C-3.63660156 4.80128906 -3.64820313 3.97757813 -3.66015625 3.12890625 C-3.51340586 0.02366796 -3.12550237 0.07623177 0 0 Z " fill="#973665" transform="translate(151.5625,38.9375)"/>
<path d="M0 0 C2.31 0 4.62 0 7 0 C6.67 1.32 6.34 2.64 6 4 C3.69 4.33 1.38 4.66 -1 5 C-0.67 3.35 -0.34 1.7 0 0 Z " fill="#C53060" transform="translate(52,59)"/>
<path d="M0 0 C0.66 0.33 1.32 0.66 2 1 C2.484375 3.65234375 2.484375 3.65234375 2.75 6.9375 C2.84796875 8.01902344 2.9459375 9.10054687 3.046875 10.21484375 C3 13 3 13 1 15 C0.63684334 13.0641649 0.28477269 11.12624752 -0.0625 9.1875 C-0.25972656 8.10855469 -0.45695313 7.02960938 -0.66015625 5.91796875 C-1 3 -1 3 0 0 Z " fill="#AB446B" transform="translate(9,120)"/>
<path d="M0 0 C1.10732122 3.32196365 0.85064093 4.68250039 0 8 C-0.33 8.66 -0.66 9.32 -1 10 C-2.32 10 -3.64 10 -5 10 C-3.84414715 6.08788267 -2.64465038 3.1254959 0 0 Z " fill="#BE416D" transform="translate(46,67)"/>
<path d="M0 0 C1.32 0 2.64 0 4 0 C4.042721 1.66611905 4.04063832 3.33382885 4 5 C3 6 3 6 0.4375 6.0625 C-0.7690625 6.0315625 -0.7690625 6.0315625 -2 6 C-2.33 5.34 -2.66 4.68 -3 4 C-2.34 3.67 -1.68 3.34 -1 3 C-0.67 2.01 -0.34 1.02 0 0 Z " fill="#A03366" transform="translate(45,121)"/>
<path d="M0 0 C2.97 0 5.94 0 9 0 C9.33 0.99 9.66 1.98 10 3 C2.25 3.125 2.25 3.125 0 2 C0 1.34 0 0.68 0 0 Z " fill="#AA4E71" transform="translate(26,112)"/>
<path d="M0 0 C1.65 0 3.3 0 5 0 C4 3 4 3 1 5 C-1.6875 5.125 -1.6875 5.125 -4 5 C-4 4.34 -4 3.68 -4 3 C-2.68 3 -1.36 3 0 3 C0 2.01 0 1.02 0 0 Z " fill="#8B3159" transform="translate(91,76)"/>
<path d="M0 0 C0.99 0.33 1.98 0.66 3 1 C-1.625 5.875 -1.625 5.875 -5 7 C-5 6.01 -5 5.02 -5 4 C-2.6875 1.75 -2.6875 1.75 0 0 Z " fill="#D63B6A" transform="translate(30,45)"/>
<path d="M0 0 C-0.33 1.65 -0.66 3.3 -1 5 C-2.98 5.66 -4.96 6.32 -7 7 C-3.86206897 0 -3.86206897 0 0 0 Z " fill="#CE4A72" transform="translate(38,35)"/>
<path d="M0 0 C0 0.66 0 1.32 0 2 C-2.97 2 -5.94 2 -9 2 C-9 1.34 -9 0.68 -9 0 C-5.67465243 -1.10844919 -3.37817425 -0.84454356 0 0 Z " fill="#3D2F58" transform="translate(104,209)"/>
<path d="M0 0 C0.33 0.99 0.66 1.98 1 3 C2.65 3.33 4.3 3.66 6 4 C6 4.99 6 5.98 6 7 C1.125 6.125 1.125 6.125 0 5 C-0.04063832 3.33382885 -0.042721 1.66611905 0 0 Z " fill="#634B6C" transform="translate(66,197)"/>
<path d="M0 0 C0.66 0 1.32 0 2 0 C2 2.31 2 4.62 2 7 C1.01 7.33 0.02 7.66 -1 8 C-0.67 5.36 -0.34 2.72 0 0 Z " fill="#A93E66" transform="translate(72,74)"/>
<path d="M0 0 C0.99 0.33 1.98 0.66 3 1 C3.33 2.65 3.66 4.3 4 6 C2.68 5.67 1.36 5.34 0 5 C0 3.35 0 1.7 0 0 Z " fill="#66345A" transform="translate(46,185)"/>
<path d="M0 0 C1.32 0.33 2.64 0.66 4 1 C3.01 2.485 3.01 2.485 2 4 C0.68 4 -0.64 4 -2 4 C-1.34 2.68 -0.68 1.36 0 0 Z " fill="#7D3E5E" transform="translate(129,66)"/>
</svg>
